<svg viewBox="-1.056 -3.539 37.626 49.051" xmlns="http://www.w3.org/2000/svg">
  <path d="M 34.452 39.249 C 34.452 40.725 33.846 41.582 32.665 42.036 C 28.073 43.806 22.635 44.72 17.463 44.72 C 12.291 44.72 6.854 43.807 2.261 42.036 C 1.081 41.582 0.475 40.726 0.475 39.249 L 0.475 0.057 L 34.452 0.057 L 34.452 39.249" fill="#0059b3"></path>
  <path d="M 9.587 23.94 C 4.884 21.004 3.329 19.704 3.197 17.778 C 3.176 17.386 3.264 16.726 3.428 16.255 L 2.985 15.96 C 2.616 16.559 2.415 17.248 2.405 17.952 C 2.405 19.066 2.761 19.908 3.197 20.582 C 3.859 21.599 4.554 22.238 6.267 23.522 C 8.113 24.907 9.371 26.524 10.096 28.215 L 10.358 28.215 L 10.358 26.295 C 12.853 27.71 15.052 29.043 16.133 31.423 L 16.395 31.423 C 15.971 28.956 14.577 27.055 9.587 23.94 M 23.393 17.519 C 22.363 17.981 21.655 18.606 21.022 19.506 L 23.124 19.396 C 23.2 18.462 23.322 17.842 23.394 17.519 L 23.393 17.519 Z M 30.971 25.024 C 31.194 24.507 31.324 23.954 31.356 23.392 L 28.283 23.218 C 28.161 23.978 27.956 24.723 27.672 25.439 L 30.971 25.024 Z M 27.646 17.4 C 27.866 17.992 28.032 18.566 28.154 19.118 L 29.961 19.018 C 29.334 18.297 28.539 17.741 27.646 17.4 Z M 26.826 19.192 C 26.617 18.442 26.324 17.718 25.955 17.032 C 25.83 17.025 25.705 17.022 25.58 17.022 C 25.373 17.022 25.164 17.049 24.962 17.072 C 24.662 17.817 24.42 18.572 24.222 19.336 L 26.826 19.192 Z M 28.333 20.16 C 28.429 20.93 28.439 21.652 28.39 22.319 L 31.346 22.162 C 31.273 21.505 31.086 20.865 30.793 20.272 L 28.333 20.16 Z M 27.328 22.374 C 27.303 21.609 27.211 20.849 27.053 20.1 L 24.069 19.965 C 23.863 20.873 23.729 21.76 23.665 22.568 L 27.328 22.374 Z M 27.787 15.989 L 28.137 15.499 L 27.595 14.776 L 27.685 14.616 L 29.209 15.438 L 28.877 16.445 C 29.121 16.562 29.347 16.712 29.65 16.912 L 30.633 15.294 L 28.085 13.962 L 22.453 13.962 L 17.883 16.712 C 18.741 17.308 19.531 17.952 20.093 18.602 C 21.317 16.82 23.469 15.682 25.6 15.682 C 26.296 15.682 27.108 15.757 27.787 15.989 Z M 16.517 15.829 L 19.041 14.317 C 18.516 14.051 17.937 13.91 17.348 13.905 C 16.478 13.892 15.011 14.292 14.3 14.4 C 14.618 14.618 15.745 15.338 16.518 15.829 L 16.517 15.829 Z M 17.035 10.132 C 16.14 9.936 15.64 10.046 15.125 10.537 C 15.378 10.657 15.693 10.723 16.042 10.698 C 16.545 10.663 16.858 10.361 17.035 10.132 Z M 31.255 31.426 L 30.936 31.426 C 30.936 29.671 29.327 29.193 27.641 29.193 L 22.373 29.193 C 22.543 30.058 22.623 31.071 22.49 32.027 L 22.228 32.027 C 21.74 28.083 19.511 26.128 16.395 24.037 L 16.395 25.832 L 16.133 25.832 C 15.305 23.98 13.484 22.241 11.761 21.008 L 10.358 20.007 L 10.358 21.943 L 10.096 21.943 C 9.366 20.023 8.039 18.589 6.147 16.883 C 4.105 15.045 3.28 13.944 2.803 12.678 C 2.513 11.912 2.431 11.293 2.42 10.451 C 2.402 8.946 3.163 7.586 4.11 7.077 L 4.11 7.807 C 3.64 8.43 3.397 9.217 3.396 10.019 C 3.394 10.757 3.57 11.579 3.939 12.28 C 5.089 14.47 8.963 17.158 11.424 18.808 C 19.076 23.939 20.603 24.835 21.874 27.558 C 22.014 27.862 22.156 28.271 22.274 28.743 C 23.379 28.573 27.389 27.963 28.128 27.845 C 28.269 27.823 28.566 27.785 28.718 27.776 C 29.408 27.339 29.948 26.783 30.422 26.089 L 27.489 25.861 C 27.339 26.198 27.189 26.481 27.056 26.707 L 26.817 26.707 C 26.897 26.409 26.967 26.116 27.027 25.826 L 26.277 25.771 L 26.277 25.611 L 27.09 25.511 C 27.244 24.681 27.318 23.896 27.334 23.162 L 23.64 22.954 C 23.62 23.332 23.616 23.689 23.629 24.02 L 23.392 24.02 C 23.314 23.651 23.252 23.285 23.204 22.928 L 22.394 22.882 L 22.394 22.635 L 23.164 22.593 C 23.069 21.705 23.043 20.812 23.089 19.92 L 20.929 19.82 C 21.031 20.01 21.136 20.204 21.211 20.412 C 21.677 21.716 21.566 23.244 21.411 23.946 L 21.151 23.946 C 21.112 23.132 20.839 22.136 20.58 21.528 C 19.982 20.12 18.641 18.876 16.395 17.432 L 16.395 19.232 L 16.133 19.232 C 15.385 16.867 13.525 15.552 10.759 14.132 C 8.478 12.96 7.769 11.549 7.897 9.364 L 8.667 9.821 C 8.865 11.864 10.435 13.043 12.078 13.031 C 13.045 13.024 13.951 12.895 14.828 12.72 C 16.092 12.464 17.261 12.246 18.238 12.593 L 18.238 11.386 L 17.471 11.386 C 17.197 11.623 16.641 11.899 15.821 11.911 C 14.921 11.928 13.217 11.409 13.217 9.506 C 13.217 7.852 14.617 7.589 15.757 7.589 C 16.365 7.589 17.379 7.566 17.722 7.546 C 17.977 7.532 18.168 7.493 18.292 7.37 C 18.421 7.243 18.46 7.112 18.49 6.944 C 18.526 6.738 18.526 6.528 18.526 6.174 L 18.526 4.967 L 13.246 4.967 L 13.246 7.057 L 11.249 6.297 L 11.249 5.797 L 12.205 5.797 L 12.205 4.967 L 8.645 4.967 L 8.645 3.231 L 7.428 3.231 C 6.778 3.231 6.031 3.685 5.979 4.567 C 5.929 5.412 6.309 6.123 7.179 6.123 L 7.335 6.123 L 7.335 7.135 L 7.178 7.135 C 5.654 7.135 4.505 5.99 4.505 4.47 C 4.505 2.887 5.855 1.681 7.485 1.681 L 10.06 1.681 L 10.06 3.418 L 20.073 3.418 L 20.073 5.983 C 20.073 6.416 20.05 6.996 20.008 7.363 C 19.978 7.63 19.883 8.111 19.378 8.497 C 19.073 8.73 18.613 8.823 17.865 8.827 C 17.263 8.823 16.661 8.801 16.06 8.763 C 14.92 8.692 14.596 9.131 14.55 9.54 C 14.54 9.626 14.541 9.71 14.55 9.791 C 15.084 9.377 15.84 9.085 16.7 9.355 C 18.21 9.83 18.641 9.873 19.428 9.255 L 19.508 9.431 C 19.423 9.563 19.271 9.751 19.051 9.918 L 19.781 9.918 L 19.781 13.872 L 22.053 12.511 L 28.43 12.511 L 31.57 14.151 C 31.96 14.357 32.115 14.606 32.176 14.971 C 32.226 15.276 32.148 15.663 31.997 15.911 C 31.904 16.065 31.171 17.266 30.784 17.907 C 31.95 19.172 32.597 20.829 32.599 22.549 C 32.599 24.205 31.987 26.342 29.997 27.93 C 30.763 28.165 31.425 28.656 31.872 29.321 L 31.254 31.426" fill="#ffdf01"></path>
  <path d="M 17.662 39.907 L 16.456 39.907 L 16.456 36.453 L 17.607 36.453 C 19.189 36.453 19.797 36.924 19.797 38.111 C 19.797 39.394 19.004 39.908 17.662 39.908 L 17.662 39.907 Z M 17.566 33.051 C 18.523 33.051 19.172 33.258 19.172 34.281 C 19.172 35.369 18.302 35.67 17.31 35.67 L 16.456 35.67 L 16.456 33.05 L 17.566 33.05 L 17.566 33.051 Z M 19.491 35.965 C 20.347 35.825 21.167 35.159 21.167 34.151 C 21.167 33.243 20.781 32.244 18.106 32.244 L 13.593 32.244 L 13.593 32.317 C 13.73 32.359 13.945 32.47 14.086 32.61 C 14.393 32.91 14.494 33.357 14.509 33.95 L 14.509 40.707 L 18.249 40.707 C 20.306 40.707 21.795 39.923 21.795 38.125 C 21.795 36.663 20.658 36.041 19.491 35.965 M 6.788 33.051 L 8.105 33.051 C 9.201 33.051 9.773 33.371 9.773 34.537 C 9.773 35.576 9.024 36.191 7.824 36.191 L 6.788 36.191 L 6.788 33.051 Z M 10.262 40.707 L 12.699 40.707 L 9.586 36.727 C 10.834 36.394 11.769 35.711 11.769 34.471 C 11.769 33.014 10.897 32.244 8.619 32.244 L 3.909 32.244 L 3.909 32.317 C 4.083 32.379 4.277 32.491 4.404 32.616 C 4.734 32.941 4.831 33.437 4.831 34.108 L 4.831 40.708 L 6.787 40.708 L 6.787 36.956 L 7.5 36.956 L 10.261 40.707 M 29.7 33.404 C 30.223 33.701 30.382 34.088 30.385 34.092 C 30.41 34.12 30.467 34.111 30.467 34.111 L 30.892 32.663 C 30.892 32.663 30.128 32.115 28.31 32.115 C 25.559 32.115 23.499 33.501 23.499 36.533 C 23.499 39.951 25.953 40.838 28.116 40.838 C 30.128 40.838 30.918 40.198 30.918 40.198 L 30.918 39.205 C 30.918 39.205 30.208 39.869 28.683 39.869 C 27.423 39.869 25.577 39.295 25.537 36.485 C 25.5 33.892 26.631 33.045 28.147 33.045 C 28.991 33.045 29.413 33.243 29.7 33.404" fill="#fff"></path>
</svg>